HIERARCHY
ROOT Hips
{
  OFFSET 2.26061 22.2878 23.7974
  CHANNELS 6 Xposition Yposition Zposition Zrotation Xrotation Yrotation
  JOINT LeftUpLeg
  {
    OFFSET 8.64259 1.95398 -2.38835
    CHANNELS 3 Zrotation Xrotation Yrotation
    JOINT LeftLeg
    {
      OFFSET 43.7702 0 0
      CHANNELS 3 Zrotation Xrotation Yrotation
      JOINT LeftFoot
      {
        OFFSET 40.6238 0 0
        CHANNELS 3 Zrotation Xrotation Yrotation
        JOINT LeftToeBase
        {
          OFFSET 12.7242 0 0
          CHANNELS 3 Zrotation Xrotation Yrotation
          End Site
          {
            OFFSET 0 0 0
          }
        }
      }
    }
  }
  JOINT RightUpLeg
  {
    OFFSET -8.2249 1.95398 -2.59336
    CHANNELS 3 Zrotation Xrotation Yrotation
    JOINT RightLeg
    {
      OFFSET 43.5653 0 0
      CHANNELS 3 Zrotation Xrotation Yrotation
      JOINT RightFoot
      {
        OFFSET 40.6238 0 0
        CHANNELS 3 Zrotation Xrotation Yrotation
        JOINT RightToeBase
        {
          OFFSET 12.7242 0 0
          CHANNELS 3 Zrotation Xrotation Yrotation
          End Site
          {
            OFFSET 0 0 0
          }
        }
      }
    }
  }
  JOINT Spine
  {
    OFFSET 0.165834 0.87714 6.61349
    CHANNELS 3 Zrotation Xrotation Yrotation
    JOINT Spine1
    {
      OFFSET 7.38963 1.71661e-005 0
      CHANNELS 3 Zrotation Xrotation Yrotation
      JOINT Spine2
      {
        OFFSET 11.9445 1.14441e-005 0
        CHANNELS 3 Zrotation Xrotation Yrotation
        JOINT Spine3
        {
          OFFSET 14.7254 4.19617e-005 0
          CHANNELS 3 Zrotation Xrotation Yrotation
          JOINT Spine4
          {
            OFFSET 10.9679 0 0
            CHANNELS 3 Zrotation Xrotation Yrotation
            JOINT RightShoulder
            {
              OFFSET 2.46616 -1.6653 3.69651
              CHANNELS 3 Zrotation Xrotation Yrotation
              JOINT RightArm
              {
                OFFSET 13.0012 0 0
                CHANNELS 3 Zrotation Xrotation Yrotation
                JOINT RightForeArm
                {
                  OFFSET 28.7848 1.52588e-005 0
                  CHANNELS 3 Zrotation Xrotation Yrotation
                  JOINT RightHand
                  {
                    OFFSET 26.5688 1.52588e-005 0
                    CHANNELS 3 Zrotation Xrotation Yrotation
                    End Site
                    {
                      OFFSET 0 0 0
                    }
                  }
                }
              }
            }
            JOINT LeftShoulder
            {
              OFFSET 2.38034 -1.29275 -3.7523
              CHANNELS 3 Zrotation Xrotation Yrotation
              JOINT LeftArm
              {
                OFFSET 16.3182 6.10351e-005 0
                CHANNELS 3 Zrotation Xrotation Yrotation
                JOINT LeftForeArm
                {
                  OFFSET 27.0901 0 0
                  CHANNELS 3 Zrotation Xrotation Yrotation
                  JOINT LeftHand
                  {
                    OFFSET 24.5451 1.52588e-005 0
                    CHANNELS 3 Zrotation Xrotation Yrotation
                    End Site
                    {
                      OFFSET 0 0 0
                    }
                  }
                }
              }
            }
            JOINT Neck
            {
              OFFSET 5.0226 -0.0266342 0
              CHANNELS 3 Zrotation Xrotation Yrotation
              JOINT Head
              {
                OFFSET 6.69363 2.86102e-005 0
                CHANNELS 3 Zrotation Xrotation Yrotation
                End Site
                {
                  OFFSET 0 0 0
                }
              }
            }
          }
        }
      }
    }
  }
}
MOTION
Frames:	11
Frame Time:	0.0416667
-91.4181 91.0749 -94.3176 65.4719 -54.6629 69.1774 -169.989 47.989 88.6738 -28.8444 9.13995 -4.32122 58.655 -0.913836 0.457415 46.5862 16.9159 17.818 174.223 -1.15433 88.3632 -26.8937 -20.2215 -6.54025 66.092 -3.77381 -2.05672 52.0999 0.863151 -2.09745 1.45655 8.15093 -89.1383 10.5539 3.29712 1.41921 -1.11348 3.35637 1.2726 -23.6671 2.71819 2.34489 -3.65447 2.71819 2.34488 93.8231 -41.2884 -96.5026 24.3608 -9.53577 -16.2998 -17.9296 -3.17926 -92.9445 -22.2295 -0.0221261 -4.60679 -100.144 -51.9133 64.4931 -37.1133 17.554 36.5929 -5.3278 -1.7258 -51.8383 28.3267 1.4632 1.28195 13.3227 -0.784094 5.41281 5.9612 -2.24679 -2.90589 
-85.1955 89.6991 -88.4514 61.1942 -55.1403 65.3788 -164.707 51.283 85.6005 -38.8705 9.46555 -6.64362 61.9767 1.7946 2.3944 42.4218 12.0107 13.2647 175.34 -0.394261 87.3673 -30.7763 -19.6406 -8.34574 57.1766 -0.452211 -0.123421 56.4948 1.81774 2.34896 1.61393 8.1438 -88.7943 10.5509 3.76846 2.05866 -1.11592 3.8554 1.89065 -23.6679 2.97576 3.09627 -3.65523 2.97574 3.09626 93.9507 -41.1005 -96.3176 25.3039 -8.07605 -13.9873 -18.912 -1.16742 -97.2861 -24.9077 -0.0283145 -4.4534 -99.8526 -51.0662 64.6053 -37.488 15.6622 38.3523 -4.4806 -2.04246 -54.3489 26.6193 1.4695 1.6588 13.9655 -1.55665 3.03372 7.17914 -2.52248 -3.06933 
-78.2434 88.8725 -82.1216 57.559 -53.6556 63.7541 -162.793 52.0174 83.7711 -48.0735 7.36618 -6.75158 69.7031 8.0318 3.2617 35.6446 5.36645 7.20294 177.39 3.70224 87.612 -36.8377 -16.2455 -7.47944 39.9014 4.779 4.75663 48.5209 1.5337 2.97231 1.51839 8.06576 -88.6676 10.7025 3.63757 2.31633 -0.965131 3.73597 2.15389 -23.51 2.77358 3.3024 -3.49737 2.77359 3.30239 94.3151 -43.3499 -95.2757 25.3115 -9.84531 -8.86973 -17.2315 -1.19 -97.5464 -25.438 0.285406 -5.94718 -100.321 -51.9603 64.2593 -34.5753 14.2214 36.0866 -4.35314 -2.60118 -54.9345 27.8916 1.37598 1.04222 15.516 -1.62709 1.70405 7.39088 -2.38727 -3.82898 
-71.8029 87.9849 -76.1489 57.5602 -51.789 64.5298 -163.846 50.1832 82.4972 -54.3336 7.86695 -5.3785 72.7195 11.6827 6.36743 37.1765 6.66106 3.75115 -178.958 13.6731 89.637 -54.6187 -6.10366 -6.84387 31.2069 5.71066 6.61648 31.4505 0.2866 -6.06089 1.1857 8.22801 -88.5784 10.3783 3.01314 2.56044 -1.29147 3.12286 2.42533 -23.8218 2.1048 3.34719 -3.8092 2.10479 3.34718 93.5447 -46.3213 -96.0107 24.6471 -13.6518 -1.50498 -14.077 -3.41831 -92.3027 -27.0782 -0.299083 -3.46527 -102.445 -52.96 61.6487 -29.7813 10.7267 31.8882 -3.31647 -3.10102 -57.0035 28.6116 1.49658 1.35493 15.6497 -1.21266 1.24305 9.91187 -2.00347 -4.21215 
-65.7644 87.1761 -70.204 59.3003 -49.0002 64.7952 -165.393 45.5752 80.3021 -57.1492 9.57035 -4.48232 74.3575 14.4212 8.83857 40.5175 9.46442 3.95266 -176.449 27.2172 89.3403 -75.9773 0.433729 -4.89063 34.3603 3.50449 4.00931 28.3078 0.477487 -7.3502 0.632576 8.499 -88.3602 9.83875 2.00421 3.09345 -1.8341 2.13832 3.00232 -24.3437 0.982505 3.55222 -4.33103 0.982509 3.55221 93.0077 -48.7827 -96.4192 26.1544 -16.7496 5.81113 -9.60827 -7.59636 -82.9549 -26.2607 0.0201216 -4.88571 -104.432 -52.8925 58.864 -24.2571 7.35415 25.2848 -3.1983 -3.78495 -60.7358 30.0605 1.52869 1.18888 15.8425 -0.767028 -0.341452 11.4617 -1.09317 -3.1547 
-59.3618 87.1103 -64.3395 59.4185 -46.598 64.2968 -166.491 39.1994 79.4393 -55.1334 11.521 -4.65439 73.7074 15.4993 11.1727 45.8489 14.051 4.99379 -174.175 42.4378 88.0609 -90.8498 1.28142 -3.52925 33.2795 3.23807 3.76561 29.5711 0.363585 -5.63909 0.178714 8.52513 -88.2956 9.79551 1.12822 3.2913 -1.87901 1.27193 3.23854 -24.3809 0.0875549 3.478 -4.36821 0.0875555 3.478 92.6812 -50.8343 -96.5516 27.9797 -18.545 13.6453 -4.88895 -11.5938 -69.9807 -28.3307 -0.137563 -4.18397 -104.716 -53.2121 58.6028 -17.3857 6.3382 15.399 0.441585 -1.88729 -64.0745 31.0131 1.73672 1.71808 16.6506 -0.334437 -0.64527 10.7826 -0.580086 -3.17834 
-52.1758 87.8612 -58.4833 62.7039 -44.305 69.1484 -169.732 29.8512 82.3167 -50.5388 15.402 -3.5492 73.0151 15.9646 12.5164 47.5164 15.8586 7.30015 -176.21 53.5761 90.3924 -97.1004 1.1128 -2.62341 35.3863 2.81307 3.17955 31.9146 0.428432 -7.27806 -0.225315 8.55749 -88.6855 9.75241 0.14595 2.59563 -1.92113 0.259992 2.5867 -24.4362 -0.640663 2.5196 -4.42352 -0.640646 2.51962 91.7609 -52.5831 -97.6177 29.7425 -19.503 24.2617 0.781604 -14.1933 -60.7861 -26.6607 -0.182842 -4.03624 -102.809 -51.5962 60.6069 -16.0534 1.59192 9.28582 2.93815 -2.17886 -73.0923 32.4906 1.87321 1.88934 14.9377 0.336574 -2.19737 10.5823 0.631145 -1.71597 
-44.1004 90.0027 -52.1703 65.2345 -40.4971 74.7103 -172.812 19.8083 86.2413 -42.5598 19.1749 -1.15293 69.1233 11.9995 9.59818 48.5347 16.9371 8.25915 176.755 60.1096 95.617 -93.7952 -0.62225 -1.95064 41.9706 2.19478 2.22213 32.4456 0.460393 -8.86813 -0.845353 8.44106 -89.3494 10.0018 -1.38876 1.41005 -1.66918 -1.32535 1.46979 -24.2074 -1.74832 0.927473 -4.19471 -1.74833 0.927462 92.1194 -54.2443 -96.7805 29.4458 -21.4289 33.9458 2.9621 -16.3513 -57.182 -23.8294 -0.316629 -3.37105 -99.964 -49.9967 64.0587 -18.4765 -3.74342 7.52979 7.18522 0.701446 -87.8558 31.4303 1.9164 2.23722 14.2173 1.73045 -2.84661 8.6407 2.34997 0.067238 
-35.3027 92.6446 -45.0818 65.9216 -41.3571 78.9129 -172.721 9.86092 91.015 -32.4025 22.9056 0.44824 56.2152 -0.260506 1.51353 52.857 21.1956 9.82499 172.307 60.9683 101.571 -81.7317 0.351628 -0.819551 44.1606 2.50813 2.47604 34.8062 0.374956 -6.085 -0.974065 8.27161 -89.9221 10.3348 -1.90487 0.319809 -1.33474 -1.88897 0.403364 -23.8813 -1.91288 -0.267675 -3.86863 -1.9129 -0.267699 91.4828 -55.3995 -97.4971 29.4978 -21.6305 42.9842 3.65373 -16.7026 -56.5805 -21.9567 -0.390646 -2.91144 -98.0928 -49.7595 66.6917 -18.5338 -4.48967 6.97004 8.52985 -3.64703 -98.5815 32.4205 1.8283 1.75062 10.6705 3.4978 -4.06292 8.75259 4.6039 3.22182 
-27.0386 95.0665 -37.3837 68.6313 -39.863 80.4927 -173.631 -0.949452 93.2211 -20.3231 28.6009 1.79267 36.5104 -12.6031 -9.06018 43.2982 12.7389 12.2381 172.37 57.6392 100.108 -65.8737 -1.96888 0.373434 48.3526 2.56129 2.35113 29.5347 0.504643 -8.08329 -1.36878 8.20381 -90.1043 10.4691 -2.77433 0.0383755 -1.19888 -2.76997 0.160525 -23.7564 -2.65752 -0.797807 -3.74378 -2.65752 -0.79781 91.3621 -54.7792 -97.7878 30.6972 -19.511 49.6409 2.956 -14.9797 -57.2142 -19.2519 -0.288012 -3.37253 -98.2903 -49.1509 66.1921 -18.875 -3.66637 8.74389 10.4518 -5.07974 -108.752 31.8515 1.11515 -0.45508 6.37424 4.50007 -4.87572 9.17872 5.9455 6.21565 
-18.5501 95.9916 -29.322 67.0035 -40.9177 77.959 -175.391 -1.35487 91.2097 -26.8126 26.0575 2.70416 33.899 -14.4273 -8.88207 28.9001 -1.15321 11.6178 176.144 53.9362 97.9824 -47.0442 -7.24881 -0.0137754 51.533 2.19853 1.93993 32.5357 0.427194 -7.25405 -1.44237 7.94201 -90.0227 10.9963 -2.88191 0.229088 -0.671454 -2.86904 0.355802 -23.2315 -2.81743 -0.648353 -3.21887 -2.81741 -0.648347 91.5233 -54.3842 -97.6263 30.7496 -17.8025 51.3895 1.85185 -13.3839 -58.6916 -18.819 -0.0489323 -4.80772 -97.5178 -48.1281 66.9794 -19.8896 -1.18373 10.7197 12.184 -7.5849 -115.084 30.5396 0.927496 -0.927389 4.22384 4.98902 -6.32905 9.97579 6.78844 7.70882 
